HIERARCHY
ROOT Hips
{
	OFFSET 0.00000 0.00000 0.00000
	CHANNELS 6 Xposition Yposition Zposition Zrotation Yrotation Xrotation 
	JOINT LHipJoint
	{
		OFFSET 0 0 0
		CHANNELS 3 Zrotation Yrotation Xrotation
		JOINT LeftHip
		{
			OFFSET 1.58895 -1.83665 0.71753
			CHANNELS 3 Zrotation Yrotation Xrotation
			JOINT LeftKnee
			{
				OFFSET 2.50528 -6.88321 0.00000
				CHANNELS 3 Zrotation Yrotation Xrotation
				JOINT LeftAnkle
				{
					OFFSET 2.63244 -7.23257 0.00000
					CHANNELS 3 Zrotation Yrotation Xrotation
					JOINT LeftToe
					{
						OFFSET 0.23691 -0.65090 1.72750
						CHANNELS 3 Zrotation Yrotation Xrotation
						End Site
						{
							OFFSET 0.00000 -0.00000 0.92561
						}
					}
				}
			}
		}
	}
	JOINT RHipJoint
	{
		OFFSET 0 0 0
		CHANNELS 3 Zrotation Yrotation Xrotation
		JOINT RightHip
		{
			OFFSET -1.51435 -1.83665 0.71753
			CHANNELS 3 Zrotation Yrotation Xrotation
			JOINT RightKnee
			{
				OFFSET -2.54551 -6.99375 0.00000
				CHANNELS 3 Zrotation Yrotation Xrotation
				JOINT RightAnkle
				{
					OFFSET -2.66027 -7.30903 0.00000
					CHANNELS 3 Zrotation Yrotation Xrotation
					JOINT RightToe
					{
						OFFSET -0.22981 -0.63138 2.03959
						CHANNELS 3 Zrotation Yrotation Xrotation
						End Site
						{
							OFFSET -0.00000 -0.00000 1.07060
						}
					}
				}
			}
		}
	}
	JOINT lowerback
	{
		OFFSET 0 0 0
		CHANNELS 3 Zrotation Yrotation Xrotation
		JOINT Chest
		{
			OFFSET -0.02651 1.86275 -0.11152
			CHANNELS 3 Zrotation Yrotation Xrotation
			JOINT Chest2
			{
				OFFSET 0.01019 1.86224 0.04087
				CHANNELS 3 Zrotation Yrotation Xrotation
				JOINT lowerneck
				{
					OFFSET 0 0 0
					CHANNELS 3 Zrotation Yrotation Xrotation
					JOINT Neck
					{
						OFFSET -0.01926 1.80512 0.08867
						CHANNELS 3 Zrotation Yrotation Xrotation
						JOINT Head
						{
							OFFSET 0.05516 1.76451 -0.38475
							CHANNELS 3 Zrotation Yrotation Xrotation
							End Site
							{
								OFFSET 0.01592 1.82587 -0.14001
							}
						}
					}
				}
				JOINT LeftCollar
				{
					OFFSET 0 0 0
					CHANNELS 3 Zrotation Yrotation Xrotation
					JOINT LeftShoulder
					{
						OFFSET 3.47116 1.51376 0.14491
CHANNELS 3 Zrotation Xrotation Yrotation
						JOINT LeftElbow
						{
OFFSET 0 -4.780950 0.000000
CHANNELS 3 Zrotation Xrotation Yrotation
							JOINT LeftWrist
							{
OFFSET 0 -3.586150 -0.000000
CHANNELS 3 Zrotation Xrotation Yrotation
								JOINT lhand
								{
									OFFSET 0 0 0
CHANNELS 3 Zrotation Xrotation Yrotation
									JOINT LFingers
									{
OFFSET 0 -0.659810 0.000000
CHANNELS 3 Zrotation Xrotation Yrotation
										End Site
										{
OFFSET 0 -0.531960 0.000000
										}
									}
								}
								JOINT LThumb
								{
OFFSET 0 0.000000 0.000000
CHANNELS 3 Zrotation Xrotation Yrotation
									End Site
									{
OFFSET 0 -0.540080 0.540080
									}
								}
							}
						}
					}
				}
				JOINT RightCollar
				{
					OFFSET 0 0 0
					CHANNELS 3 Zrotation Yrotation Xrotation
					JOINT RightShoulder
					{
						OFFSET -3.31725 1.61216 0.35156
CHANNELS 3 Zrotation Xrotation Yrotation
						JOINT RightElbow
						{
OFFSET 0 -4.489130 0.000000
CHANNELS 3 Zrotation Xrotation Yrotation
							JOINT RightWrist
							{
OFFSET 0 -3.705100 0.000000
CHANNELS 3 Zrotation Xrotation Yrotation
								JOINT rhand
								{
									OFFSET 0 0 0
CHANNELS 3 Zrotation Xrotation Yrotation
									JOINT RFingers
									{
OFFSET 0 -0.449140 0.000000
CHANNELS 3 Zrotation Xrotation Yrotation
										End Site
										{
OFFSET 0 -0.362110 0.000000
										}
									}
								}
								JOINT RThumb
								{
OFFSET 0 0.000000 0.000000
CHANNELS 3 Zrotation Xrotation Yrotation
									End Site
									{
OFFSET 0 -0.367630 0.367630
									}
								}
							}
						}
					}
				}
			}
		}
	}
}
MOTION
Frames: 5
Frame Time: 0.008333333333333333
-0.804300 18.637900 6.096400 -2.169600 -2.738900 0.736600 0.000000 0.000000 0.000000 -12.138500 -4.730600 -1.602200 1.400400 7.485800 21.163000 1.536800 3.601400 -24.950200 8.555000 -16.512700 -54.538100 0.000000 0.000000 0.000000 15.887000 -0.199500 9.195700 0.000000 0.000000 -0.000000 -0.791500 -3.484300 -18.419000 -0.444300 4.276500 -11.856000 -2.023500 0.865800 3.955400 0.622300 1.067800 -1.403400 1.700400 0.586200 -3.714400 -1.017700 -1.212600 -13.064600 3.686300 -2.258600 19.774900 1.154400 -0.771900 8.353500 0.000000 0.000000 0.000000 -0.131700 12.975900 -24.411200 23.525500 -34.658500 7.435000 -0.797300 6.138200 25.001000 0.000000 0.000000 0.000000 -7.125000 0.000000 0.000000 -18.350300 5.997400 -17.264400 0.000000 0.000000 0.000000 -8.153700 7.636000 44.946800 -17.164300 -27.073900 -4.161800 -6.153600 -0.445200 38.212400 0.000000 0.000000 0.000000 7.125000 0.000000 -0.000000 36.381300 64.764200 -18.528900
-0.800877 18.638894 6.092048 -2.187980 -2.754543 0.760693 0.000000 0.000000 0.000000 -12.136605 -4.801646 -1.635101 1.404123 7.495510 21.191929 1.539400 3.586057 -24.962143 8.522169 -16.490217 -54.422308 0.000000 0.000000 0.000000 15.897090 -0.168086 9.153499 0.000000 0.000000 0.000000 -0.788455 -3.495953 -18.394131 -0.451977 4.313077 -11.959249 -2.002174 0.857403 3.947437 0.645588 1.058773 -1.395054 1.713303 0.581320 -3.700961 -1.052899 -1.202538 -13.148985 3.675202 -2.234013 19.765488 1.159030 -0.763240 8.365194 0.000000 0.000000 0.000000 -0.139003 12.863813 -24.347102 23.683995 -34.828265 7.525344 -1.382543 6.854569 24.045742 0.000000 0.000000 0.000000 -7.125000 0.000000 0.000000 -18.733237 6.933707 -17.310813 0.000000 0.000000 0.000000 -8.231898 7.562772 45.099182 -17.128707 -27.027135 -4.145627 -6.283950 -0.468321 38.121269 0.000000 0.000000 0.000000 7.125000 0.000000 0.000000 36.126386 64.728644 -18.353549
-0.800030 18.638858 6.085274 -2.234970 -2.695146 0.712159 0.000000 0.000000 0.000000 -12.060204 -4.730509 -1.674834 1.408587 7.506791 21.225684 1.534894 3.476814 -24.874879 8.536144 -16.499784 -54.471511 0.000000 0.000000 0.000000 15.948960 -0.235451 9.176565 0.000000 0.000000 0.000000 -0.784857 -3.528902 -18.376082 -0.443097 4.271093 -11.840699 -1.938542 0.837464 4.057124 0.651472 1.033895 -1.366349 1.684329 0.567552 -3.730836 -1.203891 -1.237639 -13.397518 3.840082 -2.289677 19.900101 1.233274 -0.779714 8.461107 0.000000 0.000000 0.000000 -0.059997 12.774069 -24.432225 23.578648 -34.715390 7.465316 -0.985701 6.134979 24.886110 0.000000 0.000000 0.000000 -7.125000 0.000000 0.000000 -18.466101 6.116225 -17.339854 0.000000 0.000000 0.000000 -8.269777 7.482371 45.171229 -17.123679 -27.020487 -4.143370 -6.140201 -0.568845 38.034808 0.000000 0.000000 0.000000 7.125000 0.000000 0.000000 36.156508 64.620625 -18.281439
-0.797867 18.639318 6.077209 -2.231594 -2.592940 0.713979 0.000000 0.000000 0.000000 -12.043281 -4.734947 -1.751523 1.411780 7.514919 21.250256 1.526403 3.410928 -24.779462 8.521168 -16.489520 -54.419057 0.000000 0.000000 0.000000 15.937176 -0.326535 9.131444 0.000000 0.000000 0.000000 -0.787688 -3.498050 -18.387210 -0.433726 4.226035 -11.713546 -1.974985 0.792320 4.198027 0.666444 0.969203 -1.416846 1.722936 0.538219 -3.860914 -1.235769 -1.244494 -13.474174 3.881146 -2.305019 20.008239 1.250991 -0.783031 8.513050 0.000000 0.000000 0.000000 -0.051350 12.810664 -24.429740 23.824854 -34.978306 7.605992 -1.567043 6.877976 23.471254 0.000000 0.000000 0.000000 -7.125000 0.000000 0.000000 -18.870594 7.486458 -17.236462 0.000000 0.000000 0.000000 -8.348985 7.493719 45.290866 -17.089817 -26.976002 -4.127998 -6.096195 -0.721829 37.769378 0.000000 0.000000 0.000000 7.125000 0.000000 0.000000 35.849408 64.398669 -17.924276
-0.794162 18.640264 6.072779 -2.209406 -2.552679 0.751702 0.000000 0.000000 0.000000 -12.075132 -4.795810 -1.823013 1.415578 7.524783 21.279572 1.525238 3.436064 -24.782695 8.530957 -16.496225 -54.453354 0.000000 0.000000 0.000000 15.897403 -0.348585 9.071661 0.000000 0.000000 0.000000 -0.789293 -3.477034 -18.392075 -0.422374 4.171134 -11.558640 -1.987664 0.756897 4.190564 0.667249 0.921324 -1.423175 1.734611 0.514790 -3.861312 -1.277376 -1.256226 -13.521366 3.891645 -2.313958 20.002718 1.260340 -0.788934 8.520630 0.000000 0.000000 0.000000 -0.027338 12.705876 -24.337091 23.595047 -34.732915 7.474580 -1.192539 6.365299 24.698683 0.000000 0.000000 0.000000 -7.125000 0.000000 0.000000 -18.593926 6.305020 -17.404299 0.000000 0.000000 0.000000 -8.473607 7.539324 45.359301 -17.190118 -27.107722 -4.173578 -6.035497 -0.838577 37.832951 0.000000 0.000000 0.000000 7.125000 0.000000 0.000000 35.994643 64.432295 -18.033870
